<svg height="512pt" viewBox="0 0 511 512" width="512pt" xmlns="http://www.w3.org/2000/svg"><path d="m507.996094 245.5-66.699219-66v-93.300781c0-8.097657-6.898437-15.199219-15-15.199219h-93.300781l-66-66.5c-2.695313-3-6.597656-4.5-10.496094-4.5-3.902344 0-7.800781 1.5-10.5 4.5l-66 66.5h-93.300781c-8.101563 0-15.199219 7.101562-15.199219 15.199219v93.300781l-66.5 66c-6 5.699219-6 15.300781 0 21l66.5 66v93.300781c0 8.097657 7.097656 15.199219 15.199219 15.199219h93.300781l66 66.5c2.699219 3 6.597656 4.5 10.5 4.5 3.898438 0 7.800781-1.5 10.496094-4.5l66-66.5h93.300781c8.101563 0 15-7.101562 15-15.199219v-93.300781l66.699219-66c6.003906-5.699219 6.003906-15.300781 0-21zm0 0" fill="#fff4ca"/><path d="m507.996094 266.5-66.699219 66v93.300781c0 8.097657-6.898437 15.199219-15 15.199219h-93.300781l-66 66.5c-2.695313 3-6.597656 4.5-10.496094 4.5v-512c3.898438 0 7.800781 1.5 10.496094 4.5l66.003906 66.5h93.300781c8.097657 0 15 7.101562 15 15.199219v93.300781l66.699219 66c6 5.699219 6 15.300781-.003906 21zm0 0" fill="#ffe1ba"/><path d="m325.199219 256-19.199219 19.5c-3 2.699219-4.5 6.601562-4.5 10.5v15h-15c-3.902344 0-7.800781 1.5-10.5 4.5l-19.5 19.199219-19.503906-19.199219c-2.695313-3-6.597656-4.5-10.496094-4.5h-15v-15c0-3.898438-1.5-7.800781-4.503906-10.5l-19.195313-19.5 19.199219-19.5c3-2.699219 4.5-6.601562 4.5-10.5v-15h15c3.898438 0 7.800781-1.5 10.496094-4.5l19.503906-19.199219 19.5 19.199219c2.699219 3 6.597656 4.5 10.5 4.5h15v15c0 3.898438 1.5 7.800781 4.5 10.5zm0 0" fill="#61d7b0"/><path d="m290.699219 71.199219h-4.199219c-11.402344 0-21.898438 4.5-30 11.699219-8.101562-7.199219-18.601562-11.699219-30-11.699219h-4.199219l34.199219-34.898438zm0 0" fill="#61d7b0"/><path d="m36.710938 256 35.085937-34.085938v4.085938c0 11.566406 4.507813 22.019531 11.703125 30-7.195312 7.980469-11.703125 18.433594-11.703125 30v4.085938zm0 0" fill="#61d7b0"/><path d="m290.699219 440.800781-34.199219 34.898438-34.199219-34.898438h4.199219c11.699219 0 21.898438-4.5 30-11.699219 8.101562 7.199219 18.300781 11.699219 30 11.699219zm0 0" fill="#61d7b0"/><path d="m331.5 309.789062v-17.578124l21.210938-21.210938h43.488281c8.277343 0 15.1875 6.722656 15.1875 15v34.085938l-24.28125 24.097656c-5.859375 5.859375-15.351563 5.859375-21.210938 0zm0 0" fill="#ff9100"/><path d="m411.386719 101.113281v48.378907l-2.886719-2.886719c-8.144531-8.144531-18.832031-12.511719-29.511719-13.097657-.585937-10.679687-4.949219-21.363281-13.09375-29.507812l-2.886719-2.886719zm0 0" fill="#06ccab"/><path d="m344.683594 386.605469-24.097656 24.28125h-34.085938c-8.277344 0-15-6.910157-15-15.1875v-43.488281l21.210938-21.210938h17.578124l34.394532 34.394531c5.84375 5.84375 5.84375 15.367188 0 21.210938zm0 0" fill="#ff9100"/><path d="m168.316406 386.605469c-5.847656-5.84375-5.847656-15.367188 0-21.210938l34.394532-34.394531h17.578124l21.210938 21.210938v43.492187c0 8.273437-6.726562 15.183594-15 15.183594h-34.089844zm0 0" fill="#fdbf00"/><path d="m168.316406 125.394531 24.09375-24.28125h34.089844c8.273438 0 15 6.910157 15 15.1875v43.488281l-21.210938 21.210938h-17.578124l-34.394532-34.394531c-5.84375-5.84375-5.84375-15.367188 0-21.210938zm0 0" fill="#fdbf00"/><path d="m344.683594 125.394531c5.84375 5.84375 5.84375 15.367188 0 21.210938l-34.394532 34.394531h-17.578124l-21.210938-21.210938v-43.492187c0-8.273437 6.722656-15.183594 15-15.183594h34.085938zm0 0" fill="#ff9100"/><path d="m181.5 202.210938v17.578124l-21.210938 21.210938h-43.492187c-8.277344 0-15.183594-6.722656-15.183594-15v-34.085938l24.28125-24.097656c5.859375-5.859375 15.351563-5.859375 21.210938 0zm0 0" fill="#fdbf00"/><path d="m101.613281 286c0-8.277344 6.90625-15 15.183594-15h43.492187l21.210938 21.210938v17.578124l-34.394531 34.394532c-5.859375 5.859375-15.351563 5.859375-21.210938 0l-24.28125-24.097656zm0 0" fill="#fdbf00"/><path d="m411.386719 226c0 8.277344-6.910157 15-15.1875 15h-43.488281l-21.210938-21.210938v-17.578124l34.394531-34.394532c5.859375-5.859375 15.351563-5.859375 21.210938 0l24.28125 24.097656zm0 0" fill="#ff9100"/><path d="m101.613281 101.113281h48.375l-2.882812 2.886719c-8.144531 8.144531-12.511719 18.832031-13.097657 29.511719-10.679687.585937-21.363281 4.949219-29.511718 13.09375l-2.882813 2.886719zm0 0" fill="#61d7b0"/><path d="m101.613281 410.886719v-48.378907l2.886719 2.886719c8.144531 8.144531 18.828125 12.511719 29.507812 13.097657.585938 10.679687 4.953126 21.363281 13.097657 29.507812l2.886719 2.886719zm0 0" fill="#61d7b0"/><g fill="#06ccab"><path d="m411.386719 410.886719h-48.378907l2.886719-2.886719c8.144531-8.144531 12.507813-18.832031 13.09375-29.511719 10.679688-.585937 21.367188-4.949219 29.511719-13.09375l2.886719-2.886719zm0 0"/><path d="m441.199219 290.085938v-4.085938c0-11.566406-4.507813-22.019531-11.703125-30 7.195312-7.980469 11.703125-18.433594 11.703125-30v-4.085938l35.089843 34.085938zm0 0"/><path d="m286.5 440.800781h4.199219l-34.199219 34.898438v-46.597657c8.101562 7.199219 18.300781 11.699219 30 11.699219zm0 0"/><path d="m286.5 71.199219c-11.402344 0-21.898438 4.5-30 11.699219v-46.597657l34.199219 34.898438zm0 0"/><path d="m325.199219 256-19.199219 19.5c-3 2.699219-4.5 6.601562-4.5 10.5v15h-15c-3.902344 0-7.800781 1.5-10.5 4.5l-19.5 19.199219v-137.398438l19.5 19.199219c2.699219 3 6.597656 4.5 10.5 4.5h15v15c0 3.898438 1.5 7.800781 4.5 10.5zm0 0"/></g></svg>